<?xml version="1.0" encoding="utf-8"?>
<!-- Generator: Adobe Illustrator 19.1.0, SVG Export Plug-In . SVG Version: 6.00 Build 0)  -->
<svg version="1.1" xmlns="http://www.w3.org/2000/svg" xmlns:xlink="http://www.w3.org/1999/xlink" x="0px" y="0px"
	 viewBox="0 0 200 200" style="enable-background:new 0 0 200 200;" xml:space="preserve">
<style type="text/css">
	.st0{fill:none;stroke:#FFFFFF;stroke-width:6;stroke-miterlimit:10;}
</style>
<g id="Ebene_3">
	<rect width="200" height="200"/>
</g>
<g id="Ebene_2">
	<g>
		<g>
			<path class="st0" d="M52.1,73.2V42h25.2v32.4 M146.7,122.7v35.1h-25.2v-33.4"/>
		</g>
		<path class="st0" d="M146.7,72.8"/>
		<path class="st0" d="M147,98V43h-25.5l0.1,32.2c-7.1,0.4-14.8,0.5-23.4,0.5c-23.8,0.2-41.5-1.6-54-3.4l-0.1,25
			c12.5,1.9,30.2,3.5,54,3.4c26.7-0.2,46-2.3,58-4.2l0,25.1c-12,1.9-31.2,3.9-58,4.1c-7.4,0.1-14.3-0.5-20.7-0.8l0,33H52V99"/>
	</g>
</g>
</svg>
